<?xml version="1.0" encoding="UTF-8"?><svg id="Layer_1" xmlns="http://www.w3.org/2000/svg" xmlns:xlink="http://www.w3.org/1999/xlink" viewBox="0 0 744.4 319.39"><defs><linearGradient id="linear-gradient" x1="373.63" y1="276.66" x2="369.27" y2="77.24" gradientTransform="translate(0 321.24) scale(1 -1)" gradientUnits="userSpaceOnUse"><stop offset=".34" stop-color="#001e3e"/><stop offset=".57" stop-color="#001e42"/><stop offset=".83" stop-color="#001e50"/><stop offset=".85" stop-color="#011e52"/></linearGradient><linearGradient id="linear-gradient-2" x1="668.16" y1="227.49" x2="617.22" y2="118.01" gradientTransform="translate(0 321.24) scale(1 -1)" gradientUnits="userSpaceOnUse"><stop offset="0" stop-color="red"/><stop offset=".97" stop-color="#641c24"/></linearGradient><linearGradient id="linear-gradient-3" x1="303.89" y1="296.89" x2="323.22" y2="164.58" xlink:href="#linear-gradient-2"/><linearGradient id="linear-gradient-4" x1="422.24" y1="303.71" x2="410.53" y2="167.29" xlink:href="#linear-gradient-2"/><linearGradient id="linear-gradient-5" x1="52.7" y1="229.05" x2="118.94" y2="108.53" xlink:href="#linear-gradient-2"/><linearGradient id="linear-gradient-6" x1="550.87" y1="279.33" x2="497.59" y2="142.91" xlink:href="#linear-gradient-2"/><linearGradient id="linear-gradient-7" x1="177.84" y1="274.42" x2="212.38" y2="163.18" xlink:href="#linear-gradient-2"/><linearGradient id="linear-gradient-8" x1="175.05" y1="178.46" x2="77.91" y2="-10.1" gradientTransform="translate(0 321.24) scale(1 -1)" gradientUnits="userSpaceOnUse"><stop offset="0" stop-color="#fff"/><stop offset=".32" stop-color="#fcfcfd"/><stop offset=".46" stop-color="#f5f5f6"/><stop offset=".57" stop-color="#e8e9ea"/><stop offset=".66" stop-color="#d6d7da"/><stop offset=".74" stop-color="#bfc1c5"/><stop offset=".81" stop-color="#a2a4ab"/><stop offset=".87" stop-color="#7f838b"/><stop offset=".93" stop-color="#575c67"/><stop offset=".99" stop-color="#2b313f"/><stop offset="1" stop-color="#222837"/></linearGradient><linearGradient id="linear-gradient-9" x1="244.94" y1="166.42" x2="176.97" y2="-23.48" gradientTransform="translate(0 321.24) scale(1 -1)" gradientUnits="userSpaceOnUse"><stop offset=".15" stop-color="#fff"/><stop offset=".24" stop-color="#f8f8f9"/><stop offset=".35" stop-color="#e6e6e8"/><stop offset=".49" stop-color="#c8c9cd"/><stop offset=".64" stop-color="#9ea1a7"/><stop offset=".81" stop-color="#696d77"/><stop offset=".98" stop-color="#282e3d"/><stop offset="1" stop-color="#222837"/></linearGradient><linearGradient id="linear-gradient-10" x1="289.49" y1="150.46" x2="221.51" y2="-39.44" gradientTransform="translate(0 321.24) scale(1 -1)" gradientUnits="userSpaceOnUse"><stop offset=".25" stop-color="#fff"/><stop offset=".32" stop-color="#f8f8f9"/><stop offset=".43" stop-color="#e6e6e8"/><stop offset=".55" stop-color="#c8c9cd"/><stop offset=".68" stop-color="#9ea1a7"/><stop offset=".83" stop-color="#696d77"/><stop offset=".98" stop-color="#282e3d"/><stop offset="1" stop-color="#222837"/></linearGradient><linearGradient id="linear-gradient-11" x1="348.78" y1="129.24" x2="280.81" y2="-60.66" gradientTransform="translate(0 321.24) scale(1 -1)" gradientUnits="userSpaceOnUse"><stop offset=".21" stop-color="#fff"/><stop offset=".28" stop-color="#f8f8f9"/><stop offset=".39" stop-color="#e6e6e8"/><stop offset=".52" stop-color="#c8c9cd"/><stop offset=".67" stop-color="#9ea1a7"/><stop offset=".82" stop-color="#696d77"/><stop offset=".98" stop-color="#282e3d"/><stop offset="1" stop-color="#222837"/></linearGradient><linearGradient id="linear-gradient-12" x1="516.44" y1="131" x2="504.71" y2="24.45" xlink:href="#linear-gradient-8"/><linearGradient id="linear-gradient-13" x1="576.34" y1="130.83" x2="571.45" y2="31.12" xlink:href="#linear-gradient-8"/><linearGradient id="linear-gradient-14" x1="640.11" y1="135.97" x2="633.75" y2="28.92" xlink:href="#linear-gradient-8"/><linearGradient id="linear-gradient-15" x1="436.49" y1="147.31" x2="406.68" y2="-11.55" xlink:href="#linear-gradient-8"/></defs><path d="M726.81,94.59c-6.5-3.18-45.02-20.19-45.02-20.19l-2.5,4.29-4.65-7.83-41.4-20.46-19.04,38.48,2.78-10.62-21.17-37.27-24.7-10.02-47.15-12.29-25.45,14.36,1.23-16.07-24.7-10.02L372.13,0l-2.48,24.19-15.14-12.57-24.71-10.02-47.27,3.57-27.8,33.24.86,11.72-33.74-18.71-24.71-10.02-5.12,1.51c-3.87,1.15-8.2,2.2-12.4,3.22-6.28,1.52-12.77,3.1-18.93,5.23-.14.05-.43.14-.72.22-2.57.76-7.92,2.35-11.56,7.98l-.2.3-18.37,32.36,5.89,20.82-1.37-2.65-24.71-10.02-41.28-13.66L0,101.36l76.57,150.33,24.7,10.02,6.04-2.92,1.33-.64.62-.3,1.49-.72,11.23-5.41,1.88-.91.82-.4,1.81-.88,27.85-13.42,1.3-.62,20.86-10.06,7.79-22.02,15.65,6.67,67.84-22.34,16.62-24.48,26.22,17.71h0l61.68-5.7,13.59-16.69-.87,10.4,15.5,6.29,59.52.37,4.39-23.68,11.74,19.52,2.25,3.75.99,1.65v.03l.81,1.32,1.71,2.83,1.76.72,3.71,1.5,41.3,10.4,35.16-10.29,6.38.04s-5.94,12.79-5.94,12.8l4.07,10.89,34.84,16.46,5.38-10.67,2.02,12.28s1.83,1.08,4.62,2.69c.4.23.83.48,1.28.74,10.04,5.82,29.37,16.99,29.37,16.99l28.6,13.97,69.92-140.99-17.62-24.02.03.02ZM567.06,131.12l-4.36,16.69-.97,3.72-3.45,13.2h0l-2.9,1.74-29.37,17.66-31.78-8.56-3.19-.86-.76-.2-2.22-.6-.59-.16h0l-2.19-3.65-3.98-6.62-4.72-7.85-7.85-13.04,25.47-97.38,30.94-17.46,40.36,10.51,17.69,31.15-16.12,61.68v.03ZM713.12,104.3l-66.46,132.63-15.5-8.27h0c-3.06-1.31-6.03-2.71-8.25-4.41h0l-3.75-2.01,5.38-59.8-25.15,49.95-.62-.29-1.62-.77-22.48-10.63-5.11-2.41,6.94-14.02.68-1.38,59.93-121.1,28.28,13.98-5.04,59.56,24.04-48.78h0l28.62,13.8,1.69.82-1.57,3.13h-.01Z" fill="url(#linear-gradient)"/><g id="_1CG6kH.tif1"><path d="M130.79,140.76l-12.61-5.11,3.74-13.08-18.2-35.22-34.64-11.46-57.62,29.2,68.83,135.14,28.57-14.72c.63-1.32,1.28-2.6,1.95-3.84.51-.94,1.03-1.85,1.55-2.75,3.86-6.55,8.22-11.82,13-15.7,3.68-2.99,7.75-4.94,11.72-6.48,1.74-.67,3.46-1.27,5.13-1.84l6.45-18.66-17.85-35.5-.02.02ZM360.74,98.4l-13.68-15.59-.55-.34c-6.49-3.99-14.87-7.34-22.96-10.58-8.85-3.54-17.99-7.21-24.08-11.48-1.49-1.05-2.31-2.24-2.51-3.63-.29-2.07.73-4.72,2.8-7.28,3.36-4.14,5.64-4.24,10.65-4.48,1.57-.07,3.3-.15,5.23-.38l7.15,5.45,1.69,15.83,32.83-3.11-2.6-28.78-27.7-23.69-40.27,3.04-23.3,27.85,2.13,29.18.14.47c.28.91.43,1.37,5.6,7.15,1.4,1.57,4.77,5.31,5.65,6.03,5.96,4.85,15.65,8.71,25.92,12.81,8.06,3.21,16.4,6.54,21.8,10.06,4.36,2.85,4.36,5.24,4.36,10.46,0,1.61,0,3.39.15,5.33l-6.07,6.76c-3.26.61-5.95,1.01-8.24,1.01-4.84,0-7.97-1.96-11.41-5.38l-1.82-16.26-32.8,2.54,2.72,30.3,27.65,22.77,40.98-3.54,23.68-29.08-3.15-33.44h0ZM379.74,9.03l-3.34,32.6s18.14,2.09,26.45,2.55l-8.62,117.02,32.77,2.56,9.9-117.27,26.44,1.95,2.59-33.79-86.19-5.63h0ZM622.9,224.24c2.23,1.7,5.19,3.1,8.25,4.41l-8.25-4.41ZM686.51,91.82l-32.3,65.54,6.68-79.07-21.88-10.82-57,115.22-.68,1.38-6.03,12.19,21.11,10.02,1.05.5.38-.77,32.87-65.27-6.84,77.75-.03,1.59h0l14.22,7.03,7.03,3.48h0l63.92-127.57-22.5-11.2h0Z" fill="#011e3d"/><path d="M686.51,91.82h0l-32.29,65.54,6.68-79.07-21.88-10.82-57,115.22-.68,1.38-6.03,12.19,21.11,10.02,1.05.5.38-.77,32.87-65.27-6.84,77.75-.03,1.59,14.22,7.03,7.03,3.48,63.93-127.57-22.5-11.2h-.02ZM686.51,91.82h0l-32.29,65.54,6.68-79.07-21.88-10.82-57,115.22-.68,1.38-6.03,12.19,21.11,10.02,1.05.5.38-.77,32.87-65.27-6.84,77.75-.03,1.59,14.22,7.03,7.03,3.48,63.93-127.57-22.5-11.2h-.02ZM686.51,91.82h0l-32.29,65.54,6.68-79.07-21.88-10.82-57,115.22-.68,1.38-6.03,12.19,21.11,10.02,1.05.5.38-.77,32.87-65.27-6.84,77.75-.03,1.59,14.22,7.03,7.03,3.48,63.93-127.57-22.5-11.2h-.02ZM642.62,234.04c-2.15-1.53-5.61-2.97-8.95-4.35-.83-.35-1.67-.69-2.5-1.05l15.5,8.27-4.04-2.88h-.01ZM622.9,224.24c2.23,1.7,5.19,3.1,8.25,4.41l-8.25-4.41ZM622.63,224.03c-.98-.74-3.01-2.29-3.02-5.53v-.2l4.92-55.87-5.38,59.8,3.75,2s-.05-.04-.08-.05c-.07-.06-.13-.11-.2-.15h.01Z" fill="#003161"/><path d="M622.83,224.18s.05.03.08.05l-3.75-2,5.38-59.8-4.92,55.87v.2c0,3.24,2.04,4.79,3.02,5.53.07.04.13.09.2.15h-.01Z" fill="#fff"/><path d="M646.66,236.92l-15.5-8.27c.83.35,1.67.7,2.5,1.05,3.34,1.39,6.8,2.82,8.95,4.35l4.04,2.88h.01Z" fill="#fff"/><polygon points="709.01 103.02 645.08 230.59 623.84 220.08 623.86 218.49 630.7 140.73 597.45 206.77 575.3 196.26 639.01 67.47 660.89 78.29 654.21 157.35 686.51 91.82 709.01 103.02" fill="#fff"/><path d="M712.99,100.35l-28.62-13.8h0l-24.04,48.78,5.04-59.56-28.28-13.98-59.93,121.1-.68,1.38-6.94,14.02,5.11,2.41,22.48,10.63,1.62.77.62.29,25.15-49.95-4.92,55.87v.2c0,3.24,2.04,4.79,3.02,5.53.07.04.13.09.2.15.03.01.05.03.08.05h0l8.25,4.41h0c.83.35,1.67.7,2.5,1.05,3.34,1.39,6.8,2.82,8.95,4.35l4.04,2.88,66.45-132.63,1.57-3.12-1.69-.82h.02ZM645.08,230.59l-7.03-3.48-14.22-7.03.03-1.59,6.84-77.75-32.87,65.27h0l-.38.77-1.05-.5-21.11-10.02,6.03-12.19.68-1.38,57-115.22,21.88,10.82-6.68,79.07,32.29-65.54h0l22.5,11.2-63.93,127.57h.02Z" fill="#fff"/><path d="M227.88,48.16l-31.74-17.61-1.71.51c-4.07,1.2-8.5,2.28-12.79,3.32-6.09,1.48-12.39,3.02-18.17,5.01-.32.11-.69.21-1.07.33-1.96.58-4.91,1.45-6.84,4.45l-.06.1-16.5,29.06,16.84,59.44h-.02l3.98,14.05s0-.02.02-.03l6.45,22.78,31.2,17.7,39.67-11.19,17.88-31.76-27.14-96.16h0ZM217.62,143.78c-.79,1.81-1.52,3.23-1.97,4.03-2.69.94-10.34,3.2-12.95,3.82-.76-.31-2.26-1.03-4.34-2.24-2.04-1.18-3.41-2.14-4.07-2.68l-19.25-68.72c.17-.64.69-2.1,1.89-4.5.92-1.84,1.76-3.24,2.25-3.97,2.62-.86,10.23-2.9,12.89-3.48.81.4,2.26,1.22,4.01,2.35,1.96,1.27,3.26,2.25,3.89,2.79l19.34,67.88c-.13.62-.56,2.14-1.69,4.73h0Z" fill="#fff"/><path d="M363.9,131.84l-23.68,29.08-40.99,3.54-27.65-22.76-2.71-30.31,32.8-2.54,1.82,16.26c3.44,3.42,6.58,5.37,11.41,5.37,2.29,0,4.98-.39,8.24-1.01l6.07-6.76c-.16-1.94-.16-3.72-.15-5.33,0-5.22,0-7.61-4.36-10.46-5.4-3.53-13.74-6.85-21.8-10.06-10.26-4.09-19.95-7.95-25.92-12.81-.88-.71-4.25-4.45-5.65-6.03-5.17-5.78-5.31-6.24-5.6-7.15l-.15-.47-2.13-29.18,23.3-27.85,40.27-3.04,27.7,23.69,2.6,28.79-32.83,3.11-1.69-15.83-7.15-5.44c-1.93.23-3.65.31-5.22.38-5.01.23-7.29.33-10.65,4.48-2.07,2.56-3.09,5.21-2.8,7.28.19,1.39,1.01,2.58,2.51,3.63,6.08,4.28,15.23,7.94,24.07,11.48,8.1,3.25,16.48,6.6,22.97,10.59l.55.34,13.67,15.59,3.16,33.44v-.02Z" fill="#fff"/><path d="M465.93,14.66l-2.58,33.79-26.45-1.96-9.9,117.27-32.77-2.56,8.62-117.02c-8.31-.46-26.45-2.55-26.45-2.55l3.34-32.61,86.19,5.63h0Z" fill="#fff"/><path d="M130.79,140.76l-12.61-5.11,3.74-13.08-18.2-35.21-34.65-11.46-57.62,29.2,68.83,135.15,55.55-28.53,12.81-35.45-17.85-35.51ZM80.59,114.85c1.16,1.93,4.6,8.54,5.32,10.29.02.62-.16,2.37-.9,4.95-.74,2.56-1.52,4.14-1.87,4.66-.92.61-4.1,2.34-8.85,4.59-3.02,1.43-5.34,2.44-6.95,3.09l-11.16-22.87c1.94-.94,4.02-2.11,6.16-3.31,2.13-1.2,4.33-2.44,6.21-3.33,2.27-1.07,3.15-1.19,3.34-1.2,1.49.23,6.95,2.16,8.68,3.12h.02ZM110.94,184.84c-.36.93-.72,1.87-1.04,2.81l-15.19,7.89-11.94-23.07c2.02-.94,4.14-2.14,6.32-3.37,2.09-1.18,4.25-2.39,6.13-3.26,2.31-1.06,3.33-1.18,3.65-1.18h.04c1.19.26,5.82,1.84,7.5,2.55,1.51,2.07,5.51,9.23,6.3,11.18.1,1.57-.93,4.26-1.78,6.45h0Z" fill="#fff"/><path d="M565.49,38.29l-40.36-10.51-30.94,17.46-25.47,97.38,7.85,13.04,4.72,7.85,3.98,6.62,2.19,3.65h0l.59.16,2.22.59,3.95,1.06,31.78,8.56,29.37-17.66,2.9-1.74,3.45-13.2.98-3.72,4.36-16.69,16.12-61.68-17.69-31.15v-.02ZM563.65,127.38l-1.92,7.35-5.03,19.25h0l-1.01,3.9-1.08,4.11-29.23,17.59-30.22-8.13-1.56-.42-3.37-.91-2.92-4.86-9.72-16.16-4.29-7.13,24.56-93.92,27.88-15.73,36.96,9.63,15.95,28.09-14.99,57.35h-.01Z" fill="#fff"/><path d="M545.55,62.98c-1.43-1.04-13.46-4.34-15.19-4.29-2.24.06-11.05,5.43-11.96,7.45l-17.28,67.05-1.28,4.98c.07.56,3.39,6.29,4.97,8.74.04.05.07.11.1.16.3.46.52.77.64.89,1.49,1.53,13.86,5.17,16.07,5.05.2,0,1.35-.55,2.84-1.29,3.17-1.58,7.87-4.08,8.16-4.38l2.45-9.22.92-3.46.34-1.28,1.75-6.59,14.07-52.93c-.14-1.47-5.28-9.93-6.58-10.88h-.02ZM533.49,127.48l-1.75,6.58-.19.71-.91,3.43h0l-1.7,6.38c-2.1,1.16-6.21,3.29-7.97,4.11-1.08-.19-3.32-.71-6.19-1.58-1.19-.36-2.22-.7-3.09-1-1.57-.55-2.63-.99-3.17-1.26-.92-1.39-3.15-5.17-4.2-7.11l.19-.75,17.77-68.96c.56-.52,1.85-1.54,3.9-2.8,2.17-1.33,3.72-2.04,4.38-2.27.91.15,3.15.65,6.27,1.52,3.26.91,5.32,1.61,6.15,1.95,1.12,1.38,3.71,5.62,4.69,7.62l-14.2,53.42h.02Z" fill="#fff"/><path d="M547.69,74.06l-14.2,53.42-1.75,6.58-.19.71-.91,3.43h0l-1.7,6.38c-2.1,1.16-6.21,3.29-7.97,4.11-1.08-.19-3.32-.71-6.19-1.58-1.19-.36-2.22-.7-3.09-1-1.57-.55-2.63-.99-3.17-1.26-.92-1.39-3.15-5.17-4.2-7.11l.19-.75,17.77-68.96c.56-.52,1.85-1.54,3.9-2.8,2.17-1.33,3.72-2.04,4.38-2.27.91.15,3.15.65,6.27,1.52,3.26.91,5.32,1.61,6.15,1.95,1.12,1.38,3.71,5.62,4.69,7.62h.02Z" fill="#011e3d"/></g><polygon points="686.51 91.82 654.21 157.35 660.89 78.29 639.01 67.47 575.3 196.26 597.45 206.77 630.7 140.73 623.86 218.49 623.84 220.08 645.08 230.59 709.01 103.02 686.51 91.82" fill="url(#linear-gradient-2)"/><path d="M344.3,86.09c-13.24-8.13-35.09-13.66-47.26-22.21-6.43-4.52-4.99-11.58-.56-17.06,6.28-7.76,11.46-5.17,20.33-6.65l10.02,7.63,1.46,13.7c3.53-.14,24.51-2.61,24.51-2.61l-2.27-23.53-24.9-20.68-36.77,2.78-21.04,25.16,1.97,26.98c.22.71,9.04,10.47,9.88,11.15,10.18,8.29,34.94,14.5,47.36,22.61,8.65,5.65,5.4,11.83,6.62,20.78l-8.29,9.22c-11.68,2.3-17.46,2.54-25.91-6.34l-1.52-13.63-24.42,1.89,2.17,24.26,24.95,20.53,37.47-3.23,21.44-26.34-2.86-30.34-12.34-14.07h-.04Z" fill="url(#linear-gradient-3)"/><polygon points="381.06 37.72 408.61 40.59 398.82 157.3 423.12 159.2 433.02 41.95 459.43 43.9 461.36 18.69 383.55 13.53 381.06 37.72" fill="url(#linear-gradient-4)"/><path d="M127.72,144.09l-14.67-5.94,4.33-15.13-16.63-32.18-31.32-10.36-52.25,26.48,64.96,127.55,49.67-27.06,12.24-30.89-16.33-32.48h0ZM65.1,147.5l-14.76-30.24c5.85-3.09,21.12-10.35,21.12-10.35,0,0,10.9,3.61,12.2,4.91.75.75,6.11,11.11,6.39,12.26.68,2.81-1.9,11.71-3.94,13.74-1.57,1.56-19.98,10.4-21.01,9.67h0ZM113.45,190.59l-20.55,10.67-16.13-31.18c7.85-4.43,17.28-10.33,22.73-9.62,1.27.16,8.5,2.64,9.52,3.3,1.23.8,7.65,12.35,7.87,13.72.63,3.97-2.45,9.2-3.44,13.12h0Z" fill="url(#linear-gradient-5)"/><path d="M562.69,41.94l-36.96-9.63-27.88,15.73-24.56,93.92,4.29,7.13,9.72,16.16,2.92,4.86,3.38.91,1.55.42,30.22,8.13,29.23-17.59,1.07-4.11h0l1.02-3.89h0l5.03-19.25h0l1.92-7.35,14.99-57.35-15.95-28.09h.01ZM538.06,126.79l-1.75,6.59-.34,1.28-.92,3.46-2.45,9.22c-.29.31-4.99,2.81-8.16,4.38-1.49.74-2.64,1.28-2.84,1.29-2.2.12-14.57-3.52-16.07-5.05-.11-.12-.34-.43-.64-.89-.03-.05-.07-.1-.1-.16-1.58-2.44-4.9-8.18-4.97-8.74l1.28-4.98,17.28-67.05c.91-2.02,9.72-7.39,11.96-7.45,1.73-.05,13.76,3.25,15.19,4.29,1.3.95,6.44,9.41,6.58,10.88l-14.07,52.93h.02Z" fill="url(#linear-gradient-6)"/><path d="M240.96,109.72s-.08-.02-.12-.02l-7.07-25.05s.09.08.13.12l-2.59-9.15c0,.09,0,.18,0,.26l-7.02-24.87-28.63-15.88h0s-.08.02-.11.03l-9.13,2.43c-6.85,1.69-13.89,3.29-20.32,5.41l-6.36,1.69-16.16,28.7.09.34-.09.17,26.18,92.26,28.64,15.88c.67-.2,35.92-9.56,35.92-9.56l16.16-28.7-.09-.34.09-.17-9.49-33.55h-.02ZM217.38,151.22c-.83.55-15.04,4.41-15.9,4.27-1.65-.27-10.34-5.76-11.25-7.39l-19.46-69.63c-.51-2.12,4.7-11.78,5.86-12.54.83-.55,15.04-4.41,15.9-4.27,1.65.27,10.34,5.76,11.25,7.39l19.46,69.63c.51,2.12-4.7,11.78-5.86,12.54h0Z" fill="url(#linear-gradient-7)"/><path d="M681.39,228.49c-2.75-6.08-8.15-9.85-14.14-9.85-1.63,0-3.19.26-4.65.77-.43-4.73-.81-9.57-.81-14.47,0-1.22.06-2.71.14-4.09,3.34-6.12,6.2-14.15,2.06-21.51-2.84-5.05-8.11-7.94-14.46-7.94-5.9,0-11.94,2.42-17.01,6.8-6.05,5.05-9.61,11.31-11.05,19.53-2.19,3.55-4.6,7.25-6.99,10.84-1.39-7.58-4.99-11.92-9.14-16.11-.72-.73-1.36-1.37-1.94-2.03-3.77-5.04-10.09-11.45-21.8-11.45s-22.42,5.33-31.72,15.04c-1.48-2.52-3.17-4.67-4.77-6.26-4.33-4.33-8.86-5.24-11.89-5.24-1.6,0-3.08.24-4.44.62-2.44-8.45-9.73-12.3-16.96-12.3-5.52,0-11.56,3.27-16.76,8.21-.3-1.14-.64-2.29-1.03-3.46-6.13-18.65-19.26-28.11-39.02-28.11-.87,0-1.75.02-2.64.05h-.2c-9.07.48-18.17,2.46-28.65,6.24-7.26,2.55-15.48,5.44-22.95,6.02-.05,0-.1,0-.14.01-8.41.76-12.42,4.83-14.3,8.1-1.49,2.58-3.47,7.99-.13,15.22,1.75,3.87,4.18,7.18,7.22,9.86-6.43,10.78-12.73,22.14-18.43,33.16-1.4-1.97-3.13-3.52-5.08-4.6,1.81-4.59,2.78-9.17,2.78-13.27,0-4.88-1.46-9.98-3.91-13.65-.05-.08-.1-.15-.15-.23-3.5-5-8.38-9.19-15.34-13.19-4.78-2.82-9.51-3.15-12.66-3.15-12.68,0-25.82,7.62-36.19,20.33-4.34-11.2-14.25-18.67-26.37-18.67-3.13,0-6.17.53-9,1.38-2.92-2.78-6.65-4.32-10.59-4.32-1.99,0-4.53.4-7.25,1.81-.94-3.53-2.68-6.97-5.1-9.95-4.4-5.42-10.44-8.54-16.55-8.54-11.06,0-20.41,10.19-20.41,22.26,0,.3,0,.61.02.91-.58.49-1.15,1.03-1.7,1.61-.47-2.97-1.21-6.06-2.27-9.29-6.13-18.65-19.26-28.11-39.02-28.11-.87,0-1.75.02-2.64.05h-.2c-9.07.48-18.17,2.46-28.65,6.24-7.26,2.55-15.48,5.44-22.95,6.02-.05,0-.1,0-.14.01-8.41.76-12.42,4.83-14.3,8.1-1.49,2.58-3.47,7.99-.13,15.22,1.75,3.87,4.18,7.17,7.21,9.85-18.26,30.58-35.42,65.9-40.87,84.64-.01.05-.03.09-.04.14-1.33,4.79-2.06,10.06-2.06,14.83,0,8.11,2.56,15.01,7.61,20.52.12.13.25.26.37.39,1.46,1.46,5.91,5.91,12.45,5.91,3.61,0,10.29-1.37,14.36-10.53l.12-.27c5.73-13.78,11.52-25.83,16.49-35.66.67.03,1.36.04,2.06.04,2.54,0,5.32-.2,8.28-.59,22.09-3,40.64-13.15,54.34-24.82-.1,1.18-.16,2.32-.16,3.44,0,13.26,6.81,22.85,18.03,26.44-.16.47-.31.92-.44,1.35-1.87,5.85-2.78,10.98-2.78,15.7,0,6.7,1.9,11.96,6.34,17.59.07.08.13.17.2.25,3.05,3.66,7.19,5.68,11.66,5.68,6.2,0,11.63-3.89,14.52-10.4.02-.05.04-.1.06-.15,4.67-10.89,9.68-21.61,15.39-32.89,6.03,3.63,14.18,6.08,25.17,6.08,13.72,0,25.62-3.43,34.99-9.91,6.71,5.53,15.37,8.43,25.3,8.43h.57c9.67-.13,19.68-3.23,28.46-8.46-.88,2.47-1.64,4.78-2.25,6.86-.01.05-.03.09-.04.14-1.33,4.79-2.06,10.06-2.06,14.83,0,8.11,2.56,15.02,7.61,20.53.12.13.25.26.37.39,1.46,1.46,5.91,5.91,12.44,5.91,3.61,0,10.29-1.37,14.36-10.52.04-.09.08-.18.12-.28,5.73-13.78,11.52-25.83,16.49-35.66.67.03,1.36.04,2.06.04,2.54,0,5.32-.2,8.28-.59,18.63-2.53,34.74-10.15,47.55-19.47-.45,2.24-.69,4.45-.69,6.61,0,7.53,2.92,14.49,8.24,19.61,4.45,4.56,9.02,5.53,12.09,5.53h0c7.24,0,13.27-5.24,15.01-13.04.02-.07.03-.15.05-.22.33-1.63.86-3.43,1.58-5.37,5.08,8.44,14.2,13.72,25.28,13.72,8.11,0,16.18-2.95,22.95-7.96,6.04,4.66,13.3,7.22,20.91,7.22,3.58,0,7.03-.57,10.54-1.74.03-.01.06-.02.09-.03,7.69-2.63,15.05-8,21.53-15.63,5.68,8.65,16.25,17.61,35.66,17.61.73,0,1.46-.01,2.26-.04,18.84-.75,35.31-10.77,44.08-26.8,5.49-9.58,4.7-18.76,2.29-23.91l-.03.04Z" fill="#001634"/><path d="M75.1,281.04c5.77-19.86,26.56-61.44,46.43-92.86-7.39-1.62-11.32-5.54-13.4-10.16-1.62-3.46-.69-5.54,4.39-6.01,8.78-.69,17.55-3.7,26.1-6.7,8.32-3,16.4-5.08,25.18-5.54,12.7-.46,24.02,2.77,29.57,19.63,5.31,16.17.92,27.72-7.16,39.96-11.55,18.02-36.03,36.96-64.91,40.88-6.93.92-11.78.46-15.48-.92-6.24,12.01-13.63,26.79-21.02,44.58-1.85,4.16-3.7,4.16-6.93.92-2.54-2.77-4.39-6.47-4.39-12.24,0-3.23.46-7.39,1.62-11.55h0ZM114.83,242.01c45.97-10.39,68.37-44.12,64.21-59.59-.92-3-4.39-4.62-7.39-4.62-5.31,0-13.86,3-21.71,5.77-3.7,1.39-5.54,2.08-8.78,3-.23,5.77-3.46,15.01-8.78,24.72-2.08,3.46-4.39,7.62-17.55,30.72h0Z" fill="url(#linear-gradient-8)"/><path d="M205.68,266.76c-11.29,0-16.29-6.48-16.29-15.73,0-3.52.74-7.4,2.22-12.22,4.63-12.96,16.47-34.43,23.32-44.05,2.78-3.7,5-4.07,7.4-1.3,3.52,3.7,5,11.66.19,20.92-3.52,7.96-12.03,21.84-15.18,29.24-1.67,4.26-2.59,8.14-2.59,11.11s.74,4.63,2.78,4.63c7.4,0,17.03-12.4,22.77-24.99,1.48-3.33,3.89-2.96,5.55.37,1.67,3.15,1.48,7.77-.93,12.59-5.55,11.66-18.32,19.44-29.25,19.44h0ZM229.37,172.36c5.18,0,10.18,6.66,10.18,12.03,0,5-2.78,9.25-7.4,9.25-5.92,0-10.92-5.55-10.92-11.29,0-5.18,3.89-10,8.14-10h0Z" fill="url(#linear-gradient-9)"/><path d="M287.12,237.7c-4.44,10.18-10.55,18.51-16.47,23.32,13.7-2.78,24.25-14.99,29.62-25.73,2.22-4.26,6.11-3.33,6.85.37.37,1.85.56,7.03-2.59,12.59-8.33,14.99-23.88,20.18-39.24,20.18s-23.69-5-27.95-14.99c-8.14,15.18-16.1,31.1-23.88,49.24-1.48,3.33-3.7,4.07-5.55,1.85-2.78-3.52-3.7-6.11-3.7-10,0-2.96.56-6.85,2.22-12.03,5.37-17.58,35.91-75.15,47.38-90.51,3.33-4.07,5.74-3.33,7.22-1.3s1.85,4.44,1.85,6.85c4.63-3.15,10-5.55,14.99-5.55,11.11,0,16.47,10,16.47,19.44,0,7.96-2.96,17.4-7.22,26.28h0ZM249.92,230.48c-5.74,11.85-4.44,25.17.37,25.17,5.74,0,14.07-10.18,21.66-25.54,4.44-8.7,6.66-18.14,6.66-24.25,0-3.33-.37-5.55-1.3-5.92-3.33-1.48-13.51,7.03-21.47,20.55l-5.92,10h0Z" fill="url(#linear-gradient-10)"/><path d="M331.54,238.81c-4.44,0-8.88-1.3-13.14-4.07-1.11,3.7-1.67,7.59-1.67,10.92,0,8.14,3.33,13.88,8.88,13.88,14.07,0,26.47-13.7,34.06-25.17,2.04-2.96,4.44-3.33,5.92.37.55,1.67.74,7.03-2.59,12.03-7.77,11.29-22.58,19.99-37.02,20.18-17.21.19-26.65-11.11-26.65-25.91,0-6.66,1.85-13.88,5.74-21.29,9.63-19.62,24.62-29.43,35.35-29.43,2.59,0,4.63.37,6.48,1.48,5.18,2.96,8.88,5.92,11.48,9.63,1.11,1.67,1.85,4.44,1.85,6.85,0,11.11-12.4,30.54-28.69,30.54h0ZM320.99,227.71c1.48.93,2.78,1.3,4.07,1.3,4.44,0,10.37-5.55,14.07-10.55,5.37-7.22,9.25-15.92,7.22-17.58-2.78-2.22-16.47,9.07-25.36,26.84h0Z" fill="url(#linear-gradient-11)"/><path d="M517.38,189.58c0,3.52-1.3,8.88-3.33,14.81,4.44-1.11,9.44-3.7,14.99-7.77,3.15-2.22,5-2.59,7.4-.19,2.59,2.59,5.37,7.4,5.37,11.85,0,2.22-.93,4.81-2.96,7.22-10,11.48-20.55,26.1-20.55,37.02,0,4.81,1.48,7.77,4.07,7.77,6.29,0,13.7-10.37,19.43-23.14,1.48-3.33,4.07-3.52,5.74-.19,1.3,2.59,1.48,7.03-.56,12.03-4.44,10.55-15.36,18.51-25.91,18.51-11.29,0-17.4-7.96-17.4-17.95,0-11.85,9.81-26.1,19.06-37.39-4.81,2.04-9.44,2.78-13.51,2.96-13.88,24.06-24.43,41.09-27.02,53.86-.74,3.33-3.15,5-6.48,1.48-3.15-2.96-4.63-6.85-4.63-10.92s1.3-8.51,3.89-13.33c3.15-5.92,12.59-21.1,22.77-33.69-2.22-2.04-3.52-4.44-3.52-6.85,0-9.44,11.85-22.58,17.58-22.58,3.89,0,5.55,2.22,5.55,6.48h.02Z" fill="url(#linear-gradient-12)"/><path d="M601.41,227.34c-3.89,15.36-15.73,33.5-29.8,38.31-1.67.56-3.89,1.11-6.66,1.11-6.11,0-12.96-2.59-18.14-9.44-3.52-4.63-5.18-10.18-5.18-16.1,0-8.14,2.96-17.21,7.77-25.91,8.33-14.81,19.99-24.06,32.21-24.06,5.37,0,8.7,2.04,12.22,6.85,5.18,6.11,10.37,7.4,8.7,23.14,4.81,0,5.18,1.67,3.7,3.52-1.3,1.48-2.78,2.22-4.81,2.59h-.01ZM560.5,257.32c4.81,0,12.22-6.85,19.06-19.43,2.78-4.81,5-9.44,6.11-13.33-5.92-3.7-9.81-8.51-11.29-14.99-3.89,3.7-7.4,8.33-10.55,13.88-4.81,8.88-7.77,19.25-7.77,26.1,0,5.55,1.67,7.77,4.44,7.77h0ZM591.23,206.42c0-2.78-1.48-3.89-2.78-3.89-1.11,0-2.78,1.48-2.78,4.44,0,3.33.93,8.14,2.96,10.55,1.85-4.26,2.59-8.7,2.59-11.11h.01Z" fill="url(#linear-gradient-13)"/><path d="M608.81,226.04c3.7-3.15,6.48-2.22,7.03,2.22,6.11-8.7,12.59-18.32,17.4-26.28.74-6.66,2.96-10.92,7.22-14.44,2.96-2.59,6.29-3.89,9.07-3.89,5,0,6.11,4.07.37,13.51-.19,2.22-.37,5.37-.37,7.77,0,13.14,2.41,25.17,2.04,35.17-.19,4.63-1.11,9.81-3.15,13.88,7.59-5.18,12.77-11.29,16.1-20.36,1.67-4.26,4.44-2.96,5.74,0,.93,1.85,1.48,7.03-1.85,12.77-7.03,12.96-19.99,19.99-33.87,20.55-11.11.37-22.21-2.59-28.5-14.25-2.04-3.52-3.15-7.96-3.15-12.22,0-5.55,1.85-10.92,5.92-14.44h0ZM633.8,236.96c0-5.92-.18-11.85-.56-16.84-4.44,7.03-9.63,14.99-15.18,22.95,2.22,8.7,6.11,15.18,10.18,15.18s5.55-9.25,5.55-21.29h.01Z" fill="url(#linear-gradient-14)"/><path d="M364.13,281.04c5.77-19.86,26.56-61.44,46.43-92.86-7.39-1.62-11.32-5.54-13.4-10.16-1.62-3.46-.69-5.54,4.39-6.01,8.78-.69,17.55-3.7,26.1-6.7,8.32-3,16.4-5.08,25.18-5.54,12.7-.46,24.02,2.77,29.57,19.63,5.31,16.17.92,27.72-7.16,39.96-11.55,18.02-36.03,36.96-64.91,40.88-6.93.92-11.78.46-15.48-.92-6.24,12.01-13.63,26.79-21.02,44.58-1.85,4.16-3.7,4.16-6.93.92-2.54-2.77-4.39-6.47-4.39-12.24,0-3.23.46-7.39,1.62-11.55h0ZM403.86,242.01c45.97-10.39,68.37-44.12,64.21-59.59-.92-3-4.39-4.62-7.39-4.62-5.31,0-13.86,3-21.71,5.77-3.7,1.39-5.54,2.08-8.78,3-.23,5.77-3.46,15.01-8.78,24.72-2.08,3.46-4.39,7.62-17.55,30.72Z" fill="url(#linear-gradient-15)"/></svg>